<svg width="36" height="37" viewBox="0 0 36 37" fill="none" xmlns="http://www.w3.org/2000/svg">
<path d="M35.2026 0.847598C34.95 0.587432 34.6499 0.381027 34.3196 0.240196C33.9893 0.0993657 33.6352 0.0268752 33.2776 0.0268752C32.9199 0.0268752 32.5658 0.0993657 32.2355 0.240196C31.9052 0.381027 31.6051 0.587432 31.3525 0.847598L18 14.5429L4.64749 0.819533C4.39469 0.559709 4.09457 0.353605 3.76427 0.212989C3.43397 0.0723732 3.07995 2.73769e-09 2.72244 0C2.36492 -2.73769e-09 2.01091 0.0723733 1.68061 0.212989C1.3503 0.353605 1.05018 0.559709 0.797383 0.819533C0.544581 1.07936 0.344048 1.38781 0.207233 1.72729C0.0704172 2.06677 -2.6637e-09 2.43062 0 2.79806C2.6637e-09 3.16551 0.0704172 3.52936 0.207233 3.86883C0.344048 4.20831 0.544581 4.51677 0.797383 4.77659L14.1499 18.5L0.797383 32.2234C0.544581 32.4832 0.344048 32.7917 0.207233 33.1312C0.0704172 33.4706 0 33.8345 0 34.2019C0 34.5694 0.0704172 34.9332 0.207233 35.2727C0.344048 35.6122 0.544581 35.9206 0.797383 36.1805C1.05018 36.4403 1.3503 36.6464 1.68061 36.787C2.01091 36.9276 2.36492 37 2.72244 37C3.07995 37 3.43397 36.9276 3.76427 36.787C4.09457 36.6464 4.39469 36.4403 4.64749 36.1805L18 22.4571L31.3525 36.1805C31.6053 36.4403 31.9054 36.6464 32.2357 36.787C32.566 36.9276 32.92 37 33.2776 37C33.6351 37 33.9891 36.9276 34.3194 36.787C34.6497 36.6464 34.9498 36.4403 35.2026 36.1805C35.4554 35.9206 35.656 35.6122 35.7928 35.2727C35.9296 34.9332 36 34.5694 36 34.2019C36 33.8345 35.9296 33.4706 35.7928 33.1312C35.656 32.7917 35.4554 32.4832 35.2026 32.2234L21.8501 18.5L35.2026 4.77659C36.2402 3.71015 36.2402 1.91404 35.2026 0.847598V0.847598Z" fill="#FFF1DF"/>
</svg>
