<svg width="64" height="75" viewBox="0 0 64 75" fill="none" xmlns="http://www.w3.org/2000/svg">
<path d="M61.8524 43.0738C61.8524 59.6016 48.454 73 31.9262 73C15.3984 73 2 59.6016 2 43.0738C2 26.546 15.3984 13.1476 31.9262 13.1476C48.454 13.1476 61.8524 26.546 61.8524 43.0738Z" stroke="#628469" stroke-width="4"/>
<path d="M29.0669 60.5857C31.0126 62.4917 36.1669 65.732 41.2179 63.4448" stroke="#628469" stroke-width="4" stroke-linecap="round" stroke-linejoin="round"/>
<path d="M21.3241 15.4363C22.5154 25.8401 20.3711 47.4816 2.26367 50.8172" stroke="#628469" stroke-width="4"/>
<path d="M21.5618 13.8876C21.2838 26.9519 28.9715 52.1514 61.946 48.4346" stroke="#628469" stroke-width="4"/>
<path d="M23.3486 14.8406L60.9929 47.7199M19.7747 14.8406L2.7395 50.3407" stroke="#628469" stroke-width="4"/>
<path d="M18.4644 15.6745L12.5081 9.47987L20.847 4L23.1104 13.7685" stroke="#628469" stroke-width="4"/>
<circle cx="27.8769" cy="51.6511" r="2.85906" fill="#628469"/>
<circle cx="44.5538" cy="53.7953" r="2.85906" fill="#628469"/>
</svg>
